<svg width="14" height="10" viewBox="0 0 14 10" fill="none" xmlns="http://www.w3.org/2000/svg">
<path fill-rule="evenodd" clip-rule="evenodd" d="M13.7064 0.292787C13.8939 0.480314 13.9992 0.734622 13.9992 0.999786C13.9992 1.26495 13.8939 1.51926 13.7064 1.70679L5.70643 9.70679C5.5189 9.89426 5.2646 9.99957 4.99943 9.99957C4.73427 9.99957 4.47996 9.89426 4.29243 9.70679L0.292431 5.70679C0.110272 5.51818 0.00947813 5.26558 0.0117566 5.00339C0.014035 4.74119 0.119204 4.49038 0.304612 4.30497C0.49002 4.11956 0.740833 4.01439 1.00303 4.01211C1.26523 4.00983 1.51783 4.11063 1.70643 4.29279L4.99943 7.58579L12.2924 0.292787C12.48 0.105316 12.7343 0 12.9994 0C13.2646 0 13.5189 0.105316 13.7064 0.292787Z" fill="#15803D"/>
</svg>
