<svg width="10" height="16" viewBox="0 0 10 16" fill="none" xmlns="http://www.w3.org/2000/svg">
<path d="M4.41169 3.70922C4.73708 3.43026 5.26552 3.43026 5.59091 3.70922L9.75595 7.27985C10.0813 7.5588 10.0813 8.01183 9.75595 8.29078C9.43056 8.56974 8.90212 8.56974 8.57673 8.29078L5 5.2245L1.42327 8.28855C1.09788 8.56751 0.569439 8.56751 0.244045 8.28855C-0.0813484 8.0096 -0.0813484 7.55657 0.244045 7.27762L4.40908 3.70699L4.41169 3.70922Z" fill="#15803D"/>
<path d="M4.41169 7.70922C4.73708 7.43026 5.26552 7.43026 5.59091 7.70922L9.75595 11.2798C10.0813 11.5588 10.0813 12.0118 9.75595 12.2908C9.43056 12.5697 8.90212 12.5697 8.57673 12.2908L5 9.2245L1.42327 12.2886C1.09788 12.5675 0.569439 12.5675 0.244045 12.2886C-0.0813484 12.0096 -0.0813484 11.5566 0.244045 11.2776L4.40908 7.70699L4.41169 7.70922Z" fill="#15803D"/>
</svg>
