<svg width="10" height="16" viewBox="0 0 10 16" fill="none" xmlns="http://www.w3.org/2000/svg">
<path d="M4.41169 1.70922C4.73708 1.43026 5.26552 1.43026 5.59091 1.70922L9.75595 5.27985C10.0813 5.5588 10.0813 6.01183 9.75595 6.29078C9.43056 6.56974 8.90212 6.56974 8.57673 6.29078L5 3.2245L1.42327 6.28855C1.09788 6.56751 0.569439 6.56751 0.244045 6.28855C-0.0813484 6.0096 -0.0813484 5.55657 0.244045 5.27762L4.40908 1.70699L4.41169 1.70922Z" fill="#15803D"/>
<path d="M4.41169 5.70922C4.73708 5.43026 5.26552 5.43026 5.59091 5.70922L9.75595 9.27985C10.0813 9.5588 10.0813 10.0118 9.75595 10.2908C9.43056 10.5697 8.90212 10.5697 8.57673 10.2908L5 7.2245L1.42327 10.2886C1.09788 10.5675 0.569439 10.5675 0.244045 10.2886C-0.0813484 10.0096 -0.0813484 9.55657 0.244045 9.27762L4.40908 5.70699L4.41169 5.70922Z" fill="#15803D"/>
<path d="M4.41169 9.70922C4.73708 9.43026 5.26552 9.43026 5.59091 9.70922L9.75595 13.2798C10.0813 13.5588 10.0813 14.0118 9.75595 14.2908C9.43056 14.5697 8.90212 14.5697 8.57673 14.2908L5 11.2245L1.42327 14.2886C1.09788 14.5675 0.569439 14.5675 0.244045 14.2886C-0.0813484 14.0096 -0.0813484 13.5566 0.244045 13.2776L4.40908 9.70699L4.41169 9.70922Z" fill="#15803D"/>
</svg>
