<svg width="160" height="147" viewBox="0 0 160 147" fill="none" xmlns="http://www.w3.org/2000/svg">
<g clip-path="url(#clip0_6764_81413)">
<path d="M113.193 134.812H40.6687C38.9463 134.81 37.2951 134.122 36.0774 132.898C34.8597 131.674 34.175 130.014 34.1737 128.284V100.272C34.0236 100.444 33.8664 100.614 33.7046 100.779V128.284C33.7063 130.139 34.4405 131.918 35.7461 133.23C37.0517 134.543 38.822 135.281 40.6687 135.283H113.397C113.327 135.128 113.259 134.97 113.193 134.812ZM34.1737 31.2753C34.175 29.5446 34.8597 27.8852 36.0774 26.6612C37.2951 25.4372 38.9463 24.7487 40.6687 24.7468H64.8334C64.7888 24.5889 64.7466 24.4333 64.7067 24.2754H40.6687C38.822 24.2777 37.0517 25.016 35.7461 26.3283C34.4405 27.6406 33.7063 29.4197 33.7046 31.2753V74.2172C33.8664 74.3822 34.0213 74.5519 34.1737 74.7239V31.2753ZM131.555 36.7809L116.402 24.7208C116.04 24.4327 115.592 24.2757 115.131 24.2754H101.646C101.608 24.4333 101.566 24.5912 101.521 24.7468H115.131C115.486 24.7476 115.831 24.8679 116.111 25.0885L131.264 37.1509C131.408 37.2649 131.524 37.4103 131.604 37.5761C131.683 37.7419 131.724 37.9237 131.724 38.1078V108.302C131.881 108.307 132.038 108.319 132.193 108.33V38.1078C132.194 37.8525 132.137 37.6003 132.026 37.3704C131.916 37.1405 131.754 36.9389 131.555 36.7809Z" fill="#111827"/>
<path d="M131.354 37.404H119.128C118.686 37.404 118.248 37.3165 117.84 37.1466C117.431 36.9767 117.06 36.7276 116.748 36.4135C116.435 36.0995 116.188 35.7268 116.018 35.3165C115.849 34.9062 115.762 34.4665 115.762 34.0224V24.9487C115.762 24.9089 115.773 24.87 115.794 24.8364C115.815 24.8027 115.845 24.7757 115.881 24.7584C115.917 24.7411 115.956 24.7342 115.996 24.7386C116.035 24.7429 116.072 24.7583 116.103 24.783L131.485 37.027C131.519 37.0542 131.544 37.0915 131.556 37.1337C131.569 37.1758 131.567 37.2207 131.553 37.2621C131.539 37.3036 131.512 37.3395 131.476 37.3649C131.441 37.3903 131.398 37.404 131.354 37.404Z" fill="#E5E7EB"/>
<path d="M131.355 37.6391H119.128C118.173 37.638 117.258 37.2565 116.583 36.5784C115.909 35.9002 115.529 34.9808 115.528 34.0217V24.9481C115.528 24.864 115.551 24.7817 115.596 24.7105C115.64 24.6394 115.704 24.5822 115.779 24.5456C115.854 24.509 115.938 24.4945 116.021 24.5037C116.105 24.5128 116.183 24.5454 116.249 24.5975L131.631 36.8417C131.703 36.8993 131.756 36.9781 131.782 37.0673C131.808 37.1564 131.805 37.2514 131.775 37.3391C131.744 37.4267 131.688 37.5027 131.612 37.5565C131.537 37.6102 131.447 37.6391 131.355 37.6391ZM115.997 24.9983V34.0217C115.998 34.8558 116.328 35.6554 116.915 36.2452C117.502 36.835 118.298 37.1668 119.128 37.1677H131.285L115.997 24.9983Z" fill="#3F3D56"/>
<path d="M107.084 53.0437H71.1154C70.6691 53.0437 70.2411 52.8656 69.9255 52.5485C69.6099 52.2314 69.4326 51.8014 69.4326 51.3529C69.4326 50.9045 69.6099 50.4744 69.9255 50.1573C70.2411 49.8403 70.6691 49.6621 71.1154 49.6621H107.084C107.53 49.6621 107.958 49.8403 108.274 50.1573C108.59 50.4744 108.767 50.9045 108.767 51.3529C108.767 51.8014 108.59 52.2314 108.274 52.5485C107.958 52.8656 107.53 53.0437 107.084 53.0437Z" fill="#D1D5DB"/>
<path d="M114.026 58.7498H71.1154C70.6691 58.7498 70.2411 58.5716 69.9255 58.2546C69.6099 57.9375 69.4326 57.5074 69.4326 57.059C69.4326 56.6105 69.6099 56.1805 69.9255 55.8634C70.2411 55.5463 70.6691 55.3682 71.1154 55.3682H114.026C114.472 55.3682 114.9 55.5463 115.215 55.8634C115.531 56.1805 115.708 56.6105 115.708 57.059C115.708 57.5074 115.531 57.9375 115.215 58.2546C114.9 58.5716 114.472 58.7498 114.026 58.7498H114.026Z" fill="#D1D5DB"/>
<path d="M107.084 78.617H71.1154C70.6691 78.617 70.2411 78.4388 69.9255 78.1217C69.6099 77.8047 69.4326 77.3746 69.4326 76.9262C69.4326 76.4777 69.6099 76.0477 69.9255 75.7306C70.2411 75.4135 70.6691 75.2354 71.1154 75.2354H107.084C107.53 75.2354 107.958 75.4135 108.274 75.7306C108.59 76.0477 108.767 76.4777 108.767 76.9262C108.767 77.3746 108.59 77.8047 108.274 78.1217C107.958 78.4388 107.53 78.617 107.084 78.617Z" fill="#D1D5DB"/>
<path d="M114.026 84.324H71.1154C70.6691 84.324 70.2411 84.1459 69.9255 83.8288C69.6099 83.5117 69.4326 83.0816 69.4326 82.6332C69.4326 82.1848 69.6099 81.7547 69.9255 81.4376C70.2411 81.1205 70.6691 80.9424 71.1154 80.9424H114.026C114.472 80.9424 114.9 81.1205 115.215 81.4376C115.531 81.7547 115.708 82.1848 115.708 82.6332C115.708 83.0816 115.531 83.5117 115.215 83.8288C114.9 84.1459 114.472 84.324 114.026 84.324H114.026Z" fill="#D1D5DB"/>
<path d="M107.084 104.191H71.1154C70.8944 104.191 70.6756 104.147 70.4714 104.062C70.2673 103.978 70.0817 103.853 69.9255 103.696C69.7692 103.539 69.6453 103.353 69.5607 103.147C69.4761 102.942 69.4326 102.722 69.4326 102.5C69.4326 102.278 69.4761 102.058 69.5607 101.853C69.6453 101.648 69.7692 101.462 69.9255 101.305C70.0817 101.148 70.2673 101.023 70.4714 100.938C70.6756 100.853 70.8944 100.81 71.1154 100.81H107.084C107.53 100.81 107.958 100.988 108.274 101.305C108.59 101.622 108.767 102.052 108.767 102.5C108.767 102.949 108.59 103.379 108.274 103.696C107.958 104.013 107.53 104.191 107.084 104.191Z" fill="#D1D5DB"/>
<path d="M114.026 109.897H71.1154C70.8944 109.897 70.6756 109.854 70.4714 109.769C70.2673 109.684 70.0817 109.559 69.9255 109.402C69.7692 109.245 69.6453 109.059 69.5607 108.853C69.4761 108.648 69.4326 108.428 69.4326 108.206C69.4326 107.984 69.4761 107.765 69.5607 107.559C69.6453 107.354 69.7692 107.168 69.9255 107.011C70.0817 106.854 70.2673 106.729 70.4714 106.644C70.6756 106.559 70.8944 106.516 71.1154 106.516H114.026C114.247 106.516 114.465 106.559 114.669 106.644C114.874 106.729 115.059 106.854 115.215 107.011C115.372 107.168 115.496 107.354 115.58 107.559C115.665 107.765 115.708 107.984 115.708 108.206C115.708 108.428 115.665 108.648 115.58 108.853C115.496 109.059 115.372 109.245 115.215 109.402C115.059 109.559 114.874 109.684 114.669 109.769C114.465 109.854 114.247 109.897 114.026 109.897H114.026Z" fill="#D1D5DB"/>
<path d="M56.1371 60.1826C59.4218 60.1826 62.0846 57.507 62.0846 54.2065C62.0846 50.9061 59.4218 48.2305 56.1371 48.2305C52.8523 48.2305 50.1895 50.9061 50.1895 54.2065C50.1895 57.507 52.8523 60.1826 56.1371 60.1826Z" fill="#15803D"/>
<path d="M55.5473 56.4855C55.4135 56.4858 55.2833 56.4423 55.1762 56.3616L55.1696 56.3566L53.7718 55.2822C53.707 55.2324 53.6525 55.1702 53.6115 55.0993C53.5706 55.0283 53.544 54.9499 53.5332 54.8685C53.5225 54.7872 53.5278 54.7046 53.5489 54.6253C53.5699 54.546 53.6064 54.4717 53.656 54.4066C53.7057 54.3415 53.7677 54.2869 53.8384 54.2458C53.9091 54.2048 53.9872 54.1782 54.0681 54.1675C54.1491 54.1568 54.2313 54.1623 54.3102 54.1836C54.3891 54.2049 54.4629 54.2416 54.5277 54.2916L55.433 54.9892L57.5724 52.1847C57.6221 52.1197 57.6839 52.0651 57.7545 52.0242C57.8251 51.9832 57.9031 51.9565 57.9839 51.9458C58.0647 51.9351 58.1469 51.9404 58.2256 51.9616C58.3044 51.9828 58.3783 52.0193 58.443 52.0692L58.4432 52.0693L58.4299 52.0879L58.4435 52.0693C58.5741 52.1701 58.6595 52.3189 58.681 52.4829C58.7025 52.6469 58.6584 52.8128 58.5584 52.9442L56.0419 56.2414C55.9837 56.3174 55.9089 56.3788 55.8232 56.4211C55.7375 56.4633 55.6433 56.4851 55.5479 56.4848L55.5473 56.4855Z" fill="white"/>
<path d="M56.1371 85.7559C59.4218 85.7559 62.0846 83.0803 62.0846 79.7798C62.0846 76.4793 59.4218 73.8037 56.1371 73.8037C52.8523 73.8037 50.1895 76.4793 50.1895 79.7798C50.1895 83.0803 52.8523 85.7559 56.1371 85.7559Z" fill="#E5E7EB"/>
<path d="M55.5475 82.0598C55.4137 82.06 55.2835 82.0165 55.1764 81.9358L55.1698 81.9308L53.772 80.8565C53.6413 80.7557 53.5557 80.607 53.5342 80.4429C53.5126 80.2788 53.5568 80.1128 53.657 79.9814C53.7572 79.85 53.9053 79.7641 54.0686 79.7424C54.2319 79.7207 54.3971 79.7651 54.5279 79.8658L55.4333 80.5634L57.5727 77.7589C57.6223 77.6939 57.6841 77.6394 57.7547 77.5984C57.8253 77.5574 57.9033 77.5307 57.9841 77.52C58.0649 77.5093 58.1471 77.5147 58.2259 77.5358C58.3046 77.557 58.3785 77.5936 58.4432 77.6434L58.4434 77.6436L58.4301 77.6621L58.4437 77.6436C58.5743 77.7444 58.6597 77.8931 58.6812 78.0571C58.7027 78.2211 58.6586 78.387 58.5586 78.5184L56.0422 81.8156C55.9839 81.8916 55.9091 81.9531 55.8234 81.9953C55.7377 82.0375 55.6435 82.0593 55.5481 82.059L55.5475 82.0598Z" fill="white"/>
<path d="M56.1371 111.329C59.4218 111.329 62.0846 108.654 62.0846 105.353C62.0846 102.053 59.4218 99.377 56.1371 99.377C52.8523 99.377 50.1895 102.053 50.1895 105.353C50.1895 108.654 52.8523 111.329 56.1371 111.329Z" fill="#E5E7EB"/>
<path d="M55.5473 107.633C55.4135 107.633 55.2833 107.59 55.1762 107.509L55.1696 107.504L53.7718 106.43C53.707 106.38 53.6525 106.318 53.6115 106.247C53.5706 106.176 53.544 106.097 53.5332 106.016C53.5225 105.935 53.5278 105.852 53.5489 105.773C53.5699 105.693 53.6064 105.619 53.656 105.554C53.7057 105.489 53.7677 105.434 53.8384 105.393C53.9091 105.352 53.9872 105.326 54.0681 105.315C54.1491 105.304 54.2313 105.31 54.3102 105.331C54.3891 105.352 54.4629 105.389 54.5277 105.439L55.433 106.137L57.5724 103.332C57.6221 103.267 57.6839 103.213 57.7545 103.172C57.8251 103.131 57.9031 103.104 57.9839 103.093C58.0647 103.083 58.1469 103.088 58.2256 103.109C58.3044 103.13 58.3783 103.167 58.443 103.217L58.4432 103.217L58.4299 103.235L58.4435 103.217C58.5741 103.318 58.6595 103.466 58.681 103.63C58.7025 103.794 58.6584 103.96 58.5584 104.092L56.0419 107.389C55.9837 107.465 55.9089 107.526 55.8232 107.569C55.7375 107.611 55.6433 107.633 55.5479 107.632L55.5473 107.633Z" fill="white"/>
<path d="M139.759 144.788C139.423 144.964 139.082 145.131 138.735 145.288C138.419 145.432 138.098 145.567 137.772 145.693C137.652 145.739 137.531 145.784 137.41 145.83C136.451 146.179 135.467 146.452 134.465 146.646C133.97 146.744 133.467 146.821 132.959 146.876C132.538 146.924 132.114 146.958 131.685 146.979C131.38 146.994 131.075 147 130.767 147C129.55 147.001 128.335 146.887 127.139 146.659C126.827 146.602 126.522 146.535 126.216 146.461C124.74 146.105 123.31 145.575 121.958 144.881C121.836 144.821 121.715 144.755 121.594 144.692C121.414 144.597 121.239 144.496 121.063 144.392C121.148 144.275 121.239 144.159 121.332 144.046C122.345 142.785 123.611 141.752 125.048 141.015C126.485 140.278 128.061 139.854 129.672 139.769C131.283 139.685 132.894 139.943 134.399 140.526C135.904 141.11 137.27 142.005 138.408 143.154C138.803 143.552 139.169 143.978 139.504 144.429C139.592 144.546 139.677 144.666 139.759 144.788Z" fill="#15803D"/>
<path d="M131.199 135.232C136.45 135.232 140.706 130.955 140.706 125.679C140.706 120.404 136.45 116.127 131.199 116.127C125.949 116.127 121.692 120.404 121.692 125.679C121.692 130.955 125.949 135.232 131.199 135.232Z" fill="#374151"/>
<path d="M133.728 135.245C137.157 133.362 138.417 129.042 136.543 125.597C134.668 122.151 130.369 120.885 126.94 122.769C123.511 124.652 122.251 128.972 124.125 132.417C126 135.862 130.299 137.129 133.728 135.245Z" fill="#A0616A"/>
<path d="M137.769 124.535C136.152 125.654 134.233 126.25 132.269 126.243C132.97 126.731 133.767 127.06 134.607 127.209C131.996 127.772 129.297 127.787 126.68 127.254C126.099 127.16 125.537 126.966 125.021 126.681C124.764 126.537 124.54 126.339 124.363 126.102C124.187 125.865 124.062 125.593 123.997 125.305C123.823 124.306 124.597 123.399 125.402 122.788C126.633 121.867 128.053 121.232 129.559 120.929C131.065 120.627 132.619 120.665 134.109 121.04C135.082 121.293 136.056 121.719 136.688 122.504C137.319 123.289 137.507 124.499 136.905 125.307L137.769 124.535Z" fill="#374151"/>
<path d="M132.193 107.893C132.038 107.881 131.881 107.871 131.724 107.864C131.407 107.848 131.088 107.841 130.767 107.841C127.571 107.841 124.425 108.631 121.605 110.14C118.785 111.65 116.378 113.833 114.595 116.498C112.813 119.162 111.71 122.227 111.384 125.42C111.057 128.614 111.518 131.84 112.724 134.813C112.788 134.971 112.853 135.129 112.924 135.284C114.536 138.953 117.223 142.041 120.627 144.136L120.751 144.21C120.857 144.273 120.96 144.334 121.063 144.391C121.239 144.497 121.415 144.596 121.593 144.693C121.715 144.756 121.837 144.82 121.957 144.881C123.309 145.575 124.739 146.105 126.216 146.46C126.521 146.536 126.826 146.602 127.138 146.658C128.334 146.886 129.549 147 130.767 147C131.074 147 131.379 146.993 131.686 146.979C132.113 146.96 132.538 146.925 132.958 146.877C133.467 146.821 133.969 146.744 134.466 146.647C135.467 146.452 136.451 146.18 137.41 145.831C137.532 145.784 137.654 145.739 137.771 145.692C138.099 145.567 138.418 145.433 138.735 145.289C139.082 145.131 139.424 144.964 139.76 144.787C143.13 143.013 145.916 140.295 147.78 136.962C147.788 136.944 147.798 136.927 147.808 136.91C149.395 134.036 150.236 130.807 150.254 127.52C150.272 124.234 149.466 120.996 147.91 118.104C146.354 115.213 144.099 112.762 141.352 110.978C138.605 109.193 135.455 108.132 132.193 107.893L132.193 107.893ZM149.485 131.013C149.108 132.99 148.422 134.895 147.451 136.656C147.435 136.686 147.418 136.717 147.402 136.745C145.576 140.029 142.83 142.701 139.504 144.429C139.171 144.603 138.834 144.767 138.493 144.919C138.209 145.046 137.919 145.169 137.625 145.282C137.503 145.329 137.377 145.379 137.252 145.421C136.424 145.725 135.575 145.969 134.712 146.152C134.072 146.289 133.426 146.391 132.775 146.458C132.374 146.503 131.968 146.533 131.557 146.548C131.295 146.559 131.032 146.566 130.767 146.566C129.589 146.567 128.413 146.456 127.255 146.236C126.551 146.107 125.855 145.935 125.17 145.723C124.127 145.4 123.114 144.987 122.142 144.49C122.029 144.431 121.917 144.372 121.807 144.311C121.647 144.226 121.488 144.139 121.333 144.047C121.215 143.981 121.098 143.91 120.983 143.842C120.915 143.802 120.85 143.762 120.782 143.719C117.541 141.707 114.971 138.77 113.397 135.284C113.327 135.129 113.259 134.971 113.193 134.813C111.981 131.903 111.503 128.738 111.802 125.598C112.101 122.458 113.167 119.441 114.906 116.815C116.645 114.189 119.003 112.036 121.77 110.546C124.537 109.057 127.628 108.277 130.767 108.277C131.088 108.277 131.407 108.284 131.724 108.303C131.881 108.307 132.038 108.319 132.193 108.331C134.869 108.535 137.473 109.304 139.833 110.589C142.194 111.873 144.257 113.644 145.89 115.785C147.522 117.926 148.686 120.389 149.305 123.014C149.925 125.638 149.986 128.364 149.485 131.013L149.485 131.013Z" fill="#3F3D56"/>
<path d="M126.385 116.258C126.283 115.177 124.965 114.512 123.935 114.838C122.904 115.165 122.228 116.207 122.023 117.273C121.925 117.722 121.916 118.186 121.996 118.639C122.077 119.091 122.245 119.523 122.492 119.91C123.013 120.664 123.97 121.134 124.863 120.943C125.882 120.724 126.588 119.724 126.79 118.697C126.992 117.67 126.792 116.611 126.591 115.584L126.385 116.258Z" fill="#374151"/>
<path d="M140.887 117.802C140.785 116.721 139.467 116.056 138.437 116.382C137.406 116.709 136.73 117.751 136.525 118.817C136.427 119.266 136.418 119.73 136.498 120.183C136.578 120.635 136.747 121.067 136.994 121.454C137.515 122.208 138.472 122.678 139.365 122.486C140.384 122.268 141.09 121.268 141.292 120.241C141.494 119.214 141.293 118.155 141.093 117.128L140.887 117.802Z" fill="#374151"/>
<path d="M93.5697 35.8823C90.5534 37.823 87.0587 38.8813 83.4774 38.9386C79.8961 38.9958 76.3697 38.0498 73.2935 36.2064C73.8346 35.1943 74.5203 34.2671 75.3287 33.4545C76.5761 32.1952 78.0941 31.2399 79.7662 30.6621C81.4383 30.0843 83.22 29.8994 84.9744 30.1214C86.7287 30.3435 88.4091 30.9666 89.8864 31.9431C91.3636 32.9195 92.5985 34.2232 93.496 35.7539C93.5198 35.7953 93.5458 35.8388 93.5697 35.8823Z" fill="#15803D"/>
<path d="M82.5852 25.4789C87.8706 25.4789 92.1553 21.1737 92.1553 15.863C92.1553 10.5523 87.8706 6.24707 82.5852 6.24707C77.2998 6.24707 73.0151 10.5523 73.0151 15.863C73.0151 21.1737 77.2998 25.4789 82.5852 25.4789Z" fill="#111827"/>
<path d="M88.7679 22.6455C90.6547 19.1772 89.3862 14.8287 85.9345 12.9328C82.4827 11.0369 78.155 12.3115 76.2681 15.7797C74.3812 19.248 75.6497 23.5965 79.1015 25.4924C82.5532 27.3884 86.881 26.1137 88.7679 22.6455Z" fill="#FFB8B8"/>
<path d="M75.9717 14.7114C77.5993 15.8386 79.5312 16.4385 81.508 16.4305C80.8029 16.9218 80.0001 17.2537 79.1551 17.4032C81.7833 17.9697 84.4997 17.985 87.1342 17.4483C87.7198 17.3539 88.2848 17.1589 88.8045 16.8718C89.0635 16.7265 89.2891 16.528 89.4668 16.2893C89.6444 16.0506 89.77 15.777 89.8355 15.4863C90.0106 14.4815 89.2313 13.5685 88.4215 12.9533C87.1816 12.0256 85.7519 11.3865 84.236 11.0821C82.7201 10.7777 81.1558 10.8157 79.6563 11.1933C78.6772 11.4476 77.6963 11.8773 77.0604 12.6674C76.4244 13.4575 76.236 14.6755 76.8419 15.4891L75.9717 14.7114Z" fill="#111827"/>
<path d="M83.1716 0C78.0053 0.00577166 73.0523 2.07027 69.399 5.74062C65.7457 9.41096 63.6905 14.3875 63.6841 19.5784C63.6849 21.162 63.8787 22.7394 64.2611 24.2756C64.301 24.4336 64.3408 24.5915 64.3831 24.747C65.5071 28.8879 67.9555 32.5423 71.3509 35.1467C74.7462 37.7512 78.8999 39.1612 83.1716 39.1592C87.4441 39.1591 91.5982 37.7486 94.995 35.1446C98.3918 32.5406 100.843 28.8875 101.972 24.747C102.014 24.5891 102.054 24.4336 102.091 24.2756C102.798 21.3915 102.843 18.3836 102.222 15.4795C101.602 12.5754 100.332 9.85113 98.5096 7.51258C96.687 5.17404 94.3591 3.2825 91.7018 1.98099C89.0446 0.679484 86.1277 0.00207794 83.1716 0ZM101.646 24.2756C101.608 24.4336 101.566 24.5915 101.521 24.747C100.73 27.5791 99.3 30.1899 97.3424 32.3771C95.3848 34.5643 92.9521 36.2691 90.233 37.3592C87.514 38.4494 84.5815 38.8956 81.6631 38.6634C78.7447 38.4311 75.9187 37.5265 73.4043 36.0199C69.2255 33.4932 66.1609 29.4625 64.8334 24.747C64.7889 24.5891 64.7466 24.4336 64.7068 24.2756C64.3159 22.7408 64.1181 21.1627 64.1181 19.5784C64.1211 16.8665 64.6975 14.1861 65.8092 11.7149C66.9209 9.24371 68.5425 7.03803 70.5665 5.24397C72.5905 3.44992 74.9708 2.10843 77.5497 1.30837C80.1286 0.508316 82.8472 0.267946 85.5255 0.603183C88.2038 0.938419 90.7807 1.84161 93.0854 3.25294C95.3902 4.66426 97.3702 6.55151 98.8943 8.78968C100.418 11.0278 101.452 13.5658 101.926 16.2356C102.4 18.9053 102.305 21.6458 101.646 24.2756H101.646Z" fill="#3F3D56"/>
<path d="M30.3854 103.792C27.3693 105.732 23.8748 106.791 20.2936 106.848C16.7125 106.906 13.1861 105.96 10.1099 104.117C10.1426 104.053 10.1778 103.99 10.2153 103.928C11.2021 102.141 12.6402 100.647 14.3847 99.5955C16.1292 98.5443 18.1185 97.9737 20.1524 97.9409C22.1862 97.9082 24.1927 98.4145 25.9698 99.409C27.747 100.403 29.2319 101.851 30.2751 103.605C30.2892 103.624 30.3009 103.645 30.3127 103.664C30.3362 103.704 30.362 103.749 30.3854 103.792Z" fill="#15803D"/>
<path d="M28.9713 83.7723C28.9713 85.6742 28.41 87.5333 27.3584 89.1147C26.3068 90.696 24.8122 91.9285 23.0635 92.6563C21.3147 93.3841 19.3905 93.5745 17.5341 93.2035C15.6777 92.8324 13.9725 91.9166 12.6341 90.5718C11.2957 89.227 10.3842 87.5136 10.0149 85.6483C9.64568 83.783 9.8352 81.8495 10.5595 80.0924C11.2839 78.3354 12.5105 76.8335 14.0843 75.7769C15.6581 74.7203 17.5084 74.1564 19.4012 74.1564C20.6596 74.1503 21.9068 74.3949 23.0706 74.876C24.2344 75.3571 25.2918 76.0652 26.1817 76.9593C27.0716 77.8535 27.7763 78.9159 28.2551 80.0853C28.7339 81.2547 28.9773 82.5079 28.9713 83.7723Z" fill="#374151"/>
<path d="M26.9002 89.7465C26.7906 90.0234 26.6645 90.2933 26.5226 90.5549C25.6164 92.2203 24.0889 93.4558 22.2762 93.9898C20.4634 94.5237 18.5138 94.3122 16.8562 93.402C16.0348 92.9516 15.3097 92.3429 14.7225 91.6108C14.1353 90.8787 13.6974 90.0376 13.4338 89.1353C13.1703 88.2331 13.0862 87.2876 13.1865 86.3527C13.2868 85.4179 13.5695 84.512 14.0183 83.687C14.4672 82.8619 15.0734 82.1338 15.8024 81.5443C16.5314 80.9548 17.3689 80.5154 18.267 80.2512C19.1651 79.987 20.1062 79.9032 21.0366 80.0046C21.9669 80.1061 22.8682 80.3907 23.689 80.8423C25.2117 81.6789 26.3781 83.0452 26.9694 84.6846C27.5606 86.3241 27.536 88.124 26.9002 89.7465Z" fill="#E9AA89"/>
<path d="M34.1739 74.0854C34.0238 73.9204 33.8667 73.7578 33.7048 73.5999C31.0984 71.0045 27.8153 69.2018 24.2337 68.3995C20.6522 67.5973 16.9179 67.828 13.4611 69.0652C10.0044 70.3024 6.96586 72.4957 4.69562 75.3925C2.42537 78.2892 1.01581 81.7714 0.629326 85.438C0.242844 89.1046 0.895171 92.8062 2.51115 96.1165C4.12713 99.4268 6.64101 102.211 9.76314 104.148C12.8853 106.086 16.4886 107.097 20.158 107.067C23.8273 107.036 27.4134 105.964 30.5031 103.975C31.6569 103.231 32.73 102.368 33.7048 101.399C33.8644 101.241 34.0215 101.081 34.1739 100.916C37.5773 97.2862 39.4727 92.4875 39.4727 87.5006C39.4727 82.5138 37.5773 77.7151 34.1739 74.0854V74.0854ZM33.7048 100.779C32.6747 101.852 31.5238 102.8 30.2755 103.605C30.2732 103.607 30.2708 103.607 30.2685 103.61C27.286 105.528 23.8307 106.575 20.2898 106.631C16.7488 106.688 13.2621 105.753 10.2204 103.93C10.2181 103.93 10.2181 103.928 10.2157 103.928C7.8828 102.53 5.87435 100.647 4.32505 98.4055C2.77574 96.1638 1.72141 93.6152 1.23275 90.9305C0.744102 88.2458 0.832429 85.4872 1.49181 82.8396C2.1512 80.1921 3.36639 77.7168 5.05589 75.5798C6.7454 73.4428 8.87015 71.6935 11.2876 70.4492C13.7051 69.205 16.3595 68.4945 19.0726 68.3655C21.7858 68.2365 24.4951 68.6919 27.0187 69.7011C29.5423 70.7104 31.822 72.2503 33.7048 74.2174C33.8667 74.3824 34.0215 74.5521 34.174 74.7241C37.3064 78.2346 39.0387 82.7834 39.0387 87.4983C39.0387 92.2131 37.3064 96.762 34.174 100.272C34.0238 100.445 33.8667 100.614 33.7048 100.779Z" fill="#3F3D56"/>
<path d="M27.1576 75.7863C26.6862 74.9822 26.0027 74.3247 25.1828 73.8863C24.3628 73.448 23.4383 73.2458 22.5112 73.3022C21.5381 73.3754 20.6122 73.7357 19.7031 74.092L15.0811 75.9036C13.8852 76.3724 12.5753 76.9466 12.0563 78.1264C11.5746 79.2214 11.934 80.486 12.2978 81.6261L14.027 87.0452C14.264 85.8279 14.5047 84.5985 15.007 83.4655C15.5093 82.3324 16.3037 81.2876 17.4021 80.7215C18.6026 80.1026 20.0177 80.1155 21.3654 80.1806C23.2742 80.2729 25.3496 80.5169 26.7058 81.8697C27.4257 82.638 27.9138 83.5958 28.1133 84.6318C28.3096 85.6622 28.4085 86.7091 28.4085 87.7583C29.1912 86.4063 29.8505 84.986 30.3784 83.5147C30.8127 82.4191 31.0601 81.2578 31.1104 80.0796C31.1207 78.903 30.7892 77.6892 30.0083 76.8123C29.2275 75.9354 27.9552 75.462 26.8362 75.8091" fill="#374151"/>
<path d="M12.5828 49.9282L12.1138 49.9227C12.1194 49.4513 12.1329 48.9729 12.1539 48.501L12.6226 48.5222C12.6018 48.9889 12.5884 49.462 12.5828 49.9282Z" fill="#E5E7EB"/>
<path d="M12.8287 45.8305L12.3623 45.7794C12.4603 44.8784 12.5885 43.9697 12.7436 43.0787L13.2057 43.1599C13.0524 44.041 12.9255 44.9395 12.8287 45.8305ZM13.7534 40.5191L13.2974 40.4082C13.5097 39.528 13.7535 38.6434 14.0221 37.7791L14.4699 37.9195C14.2044 38.7742 13.9633 39.6489 13.7534 40.5191ZM15.3537 35.369L14.9159 35.1996C15.2398 34.354 15.5958 33.5078 15.9738 32.6845L16.3998 32.882C16.026 33.6961 15.674 34.5329 15.3537 35.369ZM17.6036 30.4684L17.1912 30.2438C17.6207 29.4479 18.0821 28.6551 18.5624 27.8874L18.9595 28.1383C18.4845 28.8975 18.0283 29.6814 17.6036 30.4684L17.6036 30.4684ZM20.4615 25.9007L20.0812 25.6248C20.609 24.8904 21.1675 24.1637 21.741 23.4648L22.1029 23.7647C21.5357 24.4559 20.9835 25.1745 20.4615 25.9008V25.9007ZM23.8768 21.7388L23.5347 21.4164C24.151 20.7563 24.797 20.1073 25.4547 19.4874L25.7756 19.8313C25.1252 20.4443 24.4863 21.0861 23.8768 21.7388V21.7388ZM27.7916 18.0496L27.4932 17.6859C28.1886 17.1098 28.9115 16.549 29.6419 16.0192L29.9165 16.4013C29.1942 16.9254 28.4793 17.4799 27.7916 18.0496V18.0496ZM32.1418 14.8935L31.8921 14.4944C32.6551 14.0124 33.4433 13.5495 34.2347 13.1182L34.4584 13.5325C33.6757 13.959 32.8963 14.4168 32.1418 14.8935V14.8935ZM36.8568 12.3248L36.6602 11.8967C37.4777 11.5177 38.3183 11.1606 39.1585 10.8353L39.3272 11.2751C38.4963 11.5968 37.6651 11.9499 36.8568 12.3248V12.3248ZM41.8591 10.3884L41.7192 9.93844C42.579 9.66834 43.4593 9.42299 44.3354 9.20928L44.4461 9.6673C43.5797 9.87872 42.7094 10.1213 41.8591 10.3884V10.3884ZM47.074 9.11596L46.993 8.65171C47.8796 8.49555 48.7839 8.36632 49.6807 8.26758L49.7317 8.73619C48.8449 8.83378 47.9507 8.96164 47.074 9.11596V9.11596Z" fill="#15803D"/>
<path d="M52.4268 8.52791L52.4058 8.057C52.8757 8.03582 53.3517 8.02224 53.8206 8.0166L53.8263 8.48797C53.3624 8.4935 52.8916 8.50696 52.4268 8.52791Z" fill="#E5E7EB"/>
<path d="M14.3155 48.4133L13.9804 48.0831L12.3633 49.7449L10.8316 48.0029L10.48 48.3157L12.3459 50.4369L14.3155 48.4133Z" fill="#15803D"/>
<path d="M52.318 10.2289L51.9894 9.89214L53.6433 8.26732L51.9097 6.72829L52.2209 6.375L54.332 8.24988L52.318 10.2289Z" fill="#15803D"/>
<path d="M122.502 13.1882C122.089 12.9699 121.673 12.7553 121.254 12.5445L121.464 12.123C121.886 12.3352 122.305 12.5511 122.72 12.771L122.502 13.1882Z" fill="#E5E7EB"/>
<path d="M154.38 100.186L153.946 100.007C154.299 99.1418 154.638 98.259 154.955 97.3833L155.396 97.5441C155.077 98.4259 154.735 99.3147 154.38 100.186ZM156.303 94.8627L155.856 94.7201C156.137 93.8301 156.404 92.9223 156.648 92.022L157.101 92.1462C156.855 93.0526 156.586 93.9666 156.303 94.8627ZM157.787 89.3988L157.329 89.2935C157.537 88.3826 157.728 87.4558 157.898 86.5389L158.359 86.6252C158.188 87.5484 157.996 88.4815 157.787 89.3988V89.3988ZM158.818 83.8301L158.353 83.7631C158.485 82.8388 158.6 81.8992 158.694 80.9706L159.161 81.0184C159.066 81.9534 158.951 82.8995 158.818 83.8301V83.8301ZM159.388 78.1947L158.92 78.1663C158.976 77.2347 159.013 76.2889 159.031 75.3549L159.5 75.3639C159.482 76.3042 159.445 77.2566 159.388 78.1947ZM159.496 72.531L159.027 72.5413C159.018 72.1313 159.005 71.7217 158.989 71.3124C158.968 70.7876 158.94 70.2551 158.907 69.7299L159.375 69.7002C159.409 70.229 159.436 70.7651 159.457 71.2936C159.474 71.7056 159.487 72.1181 159.496 72.531L159.496 72.531ZM158.674 66.9273C158.577 65.9987 158.46 65.0596 158.326 64.1364L158.79 64.0682C158.925 64.9979 159.043 65.9433 159.14 66.8784L158.674 66.9273ZM157.865 61.3615C157.694 60.4446 157.501 59.5181 157.292 58.6077L157.75 58.5018C157.96 59.4184 158.154 60.3512 158.326 61.2746L157.865 61.3615ZM156.608 55.8794C156.363 54.9781 156.095 54.0704 155.814 53.1811L156.261 53.0382C156.544 53.9336 156.813 54.8476 157.061 55.755L156.608 55.8794ZM154.911 50.5174C154.594 49.6395 154.254 48.7563 153.901 47.8923L154.335 47.7134C154.69 48.5834 155.032 49.4726 155.352 50.3564L154.911 50.5174ZM152.785 45.3106C152.398 44.4613 151.988 43.6087 151.566 42.7764L151.984 42.5626C152.409 43.4006 152.822 44.259 153.212 45.114L152.785 45.3106ZM150.245 40.2942C149.79 39.4798 149.311 38.6635 148.823 37.8682L149.223 37.6209C149.714 38.4216 150.195 39.2434 150.654 40.0635L150.245 40.2942ZM147.304 35.5025C146.784 34.7277 146.241 33.9534 145.69 33.2011L146.068 32.9217C146.622 33.6791 147.169 34.4588 147.693 35.239L147.304 35.5025ZM143.982 30.9679C143.4 30.2381 142.795 29.5112 142.185 28.8073L142.538 28.4975C143.153 29.2063 143.762 29.9383 144.348 30.6731L143.982 30.9679ZM140.3 26.7226C139.66 26.0433 138.997 25.3687 138.33 24.7175L138.657 24.3796C139.329 25.0352 139.996 25.7145 140.64 26.3984L140.3 26.7226ZM136.28 22.7955C135.586 22.1718 134.871 21.5542 134.152 20.9601L134.45 20.5961C135.174 21.1945 135.895 21.8163 136.593 22.4443L136.28 22.7955ZM131.95 19.2142C131.21 18.6519 130.447 18.0965 129.682 17.5634L129.95 17.176C130.72 17.7128 131.488 18.2721 132.233 18.8381L131.95 19.2142ZM127.349 16.0077C126.566 15.5083 125.761 15.0175 124.955 14.5486L125.19 14.1406C126.001 14.6127 126.812 15.1069 127.601 15.6096L127.349 16.0077Z" fill="#15803D"/>
<path d="M152.656 104.072L152.233 103.867C152.437 103.443 152.636 103.018 152.83 102.592L153.257 102.788C153.061 103.217 152.861 103.645 152.656 104.072Z" fill="#E5E7EB"/>
<path d="M121.842 14.7759L122.284 14.6192L121.513 12.428L123.745 11.8152L123.62 11.3604L120.903 12.107L121.842 14.7759Z" fill="#15803D"/>
<path d="M151.342 101.74L151.788 101.593L152.509 103.801L154.649 102.917L154.827 103.353L152.221 104.43L151.342 101.74Z" fill="#15803D"/>
</g>
<defs>
<clipPath id="clip0_6764_81413">
<rect width="159" height="147" fill="white" transform="translate(0.5)"/>
</clipPath>
</defs>
</svg>
