<svg width="25" height="24" viewBox="0 0 25 24" fill="none" xmlns="http://www.w3.org/2000/svg">
<path d="M20.9491 20.4495H17.3931V14.8804C17.3931 13.5525 17.3694 11.8429 15.5436 11.8429C13.6915 11.8429 13.4081 13.2899 13.4081 14.7838V20.4491H9.85212V8.99697H13.2658V10.562H13.3137C13.6553 9.97787 14.149 9.49732 14.7421 9.17154C15.3353 8.84577 16.0057 8.68697 16.6819 8.71206C20.2861 8.71206 20.9506 11.0828 20.9506 14.167L20.9491 20.4495V20.4495ZM5.83963 7.43162C4.69991 7.43181 3.77581 6.508 3.77562 5.36828C3.77544 4.22856 4.69916 3.30447 5.83887 3.30428C6.97859 3.304 7.90269 4.22781 7.90287 5.36753C7.90297 5.91484 7.68566 6.43978 7.29872 6.82687C6.91179 7.21396 6.38694 7.4315 5.83963 7.43162M7.61769 20.4496H4.05791V8.99697H7.61759V20.4495L7.61769 20.4496ZM22.7219 0.00174674H2.27103C1.30447 -0.00912826 0.511813 0.765153 0.5 1.73172V22.2679C0.511438 23.235 1.304 24.01 2.27094 23.9999H22.7219C23.6909 24.0119 24.4866 23.2368 24.5 22.2679V1.73012C24.4862 0.761684 23.6905 -0.0125033 22.7219 0.00015299" fill="#0A66C2"/>
</svg>
