<svg width="31" height="42" viewBox="0 0 31 42" fill="none" xmlns="http://www.w3.org/2000/svg">
<path d="M27.9251 0.000155512C27.9192 0.000155512 27.9143 0.00879113 27.9143 0.0194024C27.9143 0.0300137 27.8879 0.160773 27.8558 0.310018C27.8237 0.459266 27.7576 0.738878 27.709 0.93138C27.6604 1.12388 27.5772 1.42762 27.5239 1.60637C27.4708 1.78511 27.39 2.04386 27.3443 2.18136C27.2987 2.31886 27.224 2.53536 27.1781 2.66258C27.1323 2.7897 27.0442 3.02322 26.9823 3.18134C26.9203 3.33946 26.8149 3.59533 26.7479 3.75009C26.681 3.90471 26.5649 4.16345 26.4898 4.32508C26.4148 4.48657 26.2768 4.76869 26.1833 4.95193C26.0899 5.13518 25.963 5.37704 25.9014 5.48941C25.8397 5.60178 25.7311 5.79504 25.6603 5.91878C25.5893 6.04253 25.4503 6.27591 25.3513 6.43753C25.2523 6.59903 25.1107 6.82404 25.0365 6.93752C24.9624 7.0509 24.8107 7.27589 24.6993 7.43751C24.588 7.59901 24.4289 7.82402 24.3459 7.9375C24.2627 8.05088 24.1114 8.252 24.0095 8.38422C23.9076 8.51647 23.7325 8.73686 23.6202 8.87397C23.5079 9.01097 23.3394 9.21209 23.2457 9.32096C23.152 9.4297 22.991 9.61144 22.8882 9.72497C22.7852 9.83834 22.626 10.01 22.5343 10.1062C22.4427 10.2024 22.2604 10.3896 22.1292 10.5221C21.9981 10.6546 21.7548 10.8887 21.5885 11.0422C21.4223 11.1958 21.2141 11.385 21.1257 11.4627C21.0374 11.5404 20.8608 11.691 20.7335 11.7975C20.6063 11.9039 20.372 12.0925 20.2128 12.2166C20.0538 12.3409 19.8021 12.5303 19.6536 12.6378C19.5051 12.7451 19.2943 12.894 19.1852 12.9684C19.0761 13.0429 18.8708 13.1779 18.7287 13.2686C18.5868 13.3593 18.3811 13.487 18.2714 13.5524C18.1619 13.6177 17.9853 13.7207 17.8793 13.7811C17.7732 13.8415 17.5765 13.9495 17.4421 14.0211C17.3078 14.0927 17.0532 14.2209 16.8764 14.3059C16.6996 14.3909 16.4566 14.5036 16.3364 14.5565C16.2162 14.6094 15.9997 14.7 15.8553 14.7579C15.7109 14.8157 15.5142 14.8916 15.4182 14.9266C15.3221 14.9615 15.125 15.0284 14.98 15.0751C14.8351 15.122 14.5631 15.2054 14.3757 15.2605C14.1884 15.3157 13.685 15.46 13.2571 15.5814C12.8293 15.7026 12.326 15.8467 12.1385 15.9016C11.9512 15.9565 11.6069 16.0599 11.3735 16.1314C11.1402 16.2029 10.8046 16.3089 10.6278 16.3669C10.451 16.4249 10.1965 16.51 10.0621 16.556C9.92773 16.602 9.68189 16.6891 9.51567 16.7497C9.34955 16.8102 9.06887 16.916 8.89211 16.9846C8.71532 17.0532 8.44917 17.1601 8.30068 17.2219C8.15218 17.2839 7.93399 17.3773 7.81596 17.4294C7.6978 17.4816 7.47794 17.5823 7.32739 17.6533C7.1767 17.7243 6.93498 17.8434 6.78994 17.9179C6.64491 17.9923 6.43379 18.1042 6.32067 18.1663C6.20752 18.2286 6.01954 18.3356 5.90282 18.4042C5.78621 18.4728 5.60968 18.5794 5.5107 18.6412C5.4117 18.7028 5.24686 18.8099 5.14428 18.8789C5.04181 18.9481 4.8798 19.0607 4.78427 19.1293C4.68888 19.1979 4.5297 19.3171 4.43069 19.3941C4.33169 19.4711 4.16404 19.6064 4.05798 19.695C3.95204 19.7835 3.74454 19.9713 3.59679 20.1123C3.44919 20.2531 3.263 20.4388 3.1833 20.5248C3.10358 20.6106 2.98503 20.7429 2.91972 20.8185C2.85454 20.8941 2.73303 21.0444 2.64958 21.1525C2.56613 21.2606 2.43743 21.4377 2.36365 21.5462C2.28984 21.6547 2.19419 21.8004 2.15125 21.87C2.1083 21.9395 2.02614 22.081 1.9688 22.1843C1.91145 22.2877 1.8212 22.4635 1.7681 22.5749C1.715 22.6861 1.63734 22.8601 1.59555 22.9615C1.55376 23.0627 1.49013 23.2296 1.45413 23.3321C1.41799 23.4346 1.36335 23.6033 1.33262 23.7071C1.30188 23.8107 1.25613 23.9823 1.23093 24.0883C1.20574 24.1942 1.17075 24.3568 1.15327 24.4497C1.13579 24.5424 1.10968 24.6999 1.09515 24.7997C1.08063 24.8993 1.06018 25.0681 1.04964 25.1747C1.03909 25.2812 1.02458 25.4753 1.01737 25.6059C1.01031 25.7365 1.00439 25.9305 1.00439 26.0371C1.00426 26.1436 1.01019 26.349 1.01749 26.4934C1.02471 26.6377 1.03923 26.8486 1.04977 26.9621C1.06031 27.0755 1.08062 27.2584 1.09489 27.3683C1.10917 27.4783 1.13835 27.6724 1.15982 27.7996C1.18116 27.9267 1.21613 28.1152 1.23722 28.2183C1.25843 28.3214 1.29842 28.5014 1.32593 28.6183C1.35359 28.7352 1.4054 28.9391 1.44114 29.0713C1.47689 29.2037 1.54039 29.423 1.58218 29.5588C1.62397 29.6947 1.69969 29.9267 1.75061 30.0746C1.80152 30.2223 1.88805 30.4614 1.94295 30.6058C1.99785 30.7502 2.08927 30.9808 2.14597 31.1183C2.20267 31.2558 2.29242 31.4666 2.34526 31.587C2.39823 31.7073 2.48618 31.9014 2.54069 32.0183C2.59521 32.1351 2.70346 32.3601 2.78111 32.5182C2.8589 32.6764 2.98991 32.9334 3.07232 33.0894C3.19601 33.3235 3.21966 33.377 3.20796 33.3956C3.20025 33.4081 3.10601 33.582 2.99865 33.782C2.89129 33.9821 2.69714 34.359 2.56742 34.6195C2.43769 34.8801 2.24623 35.2732 2.14199 35.4932C2.03785 35.7132 1.88908 36.0309 1.81144 36.1994C1.73391 36.3678 1.58939 36.6856 1.49025 36.9056C1.39125 37.1256 1.2119 37.5306 1.09168 37.8056C0.971593 38.0806 0.757637 38.5783 0.616362 38.9118C0.475062 39.2452 0.275378 39.7225 0.172644 39.9725C0.0170716 40.3513 -0.0110767 40.4298 0.00332212 40.4431C0.0128494 40.452 0.56056 40.7918 1.22026 41.1982C1.88007 41.6047 2.44298 41.9514 2.47113 41.9686L2.52218 42L2.48374 41.9261C2.46265 41.8854 2.43295 41.8079 2.41765 41.7539C2.39591 41.677 2.38844 41.6075 2.38344 41.4353C2.37947 41.3015 2.38283 41.1641 2.39233 41.0853C2.40068 41.0139 2.41906 40.8908 2.43309 40.8118C2.44696 40.7327 2.47808 40.5884 2.50212 40.4912C2.52617 40.3939 2.56899 40.2364 2.59727 40.1412C2.62555 40.0459 2.69216 39.8439 2.745 39.6922C2.79797 39.5405 2.88 39.3183 2.92731 39.1984C2.97476 39.0787 3.06476 38.8605 3.12763 38.7139C3.19038 38.5672 3.30468 38.3113 3.38156 38.1452C3.45858 37.9791 3.5919 37.6996 3.67792 37.5243C3.76393 37.349 3.91296 37.0565 4.00913 36.8743C4.10517 36.6921 4.25033 36.4222 4.33157 36.2743C4.41296 36.1265 4.5162 35.9417 4.56107 35.8637C4.60595 35.7856 4.64015 35.7177 4.63706 35.7127C4.63386 35.7078 4.64542 35.4988 4.66278 35.2485C4.68002 34.998 4.70584 34.6383 4.72024 34.4493C4.73464 34.2602 4.75483 34.0184 4.76525 33.9116C4.77567 33.8049 4.79881 33.608 4.81668 33.4741C4.83469 33.3402 4.86965 33.113 4.89447 32.9692C4.91929 32.8254 4.96287 32.5985 4.99128 32.465C5.01971 32.3314 5.06893 32.12 5.10069 31.9952C5.13245 31.8703 5.18735 31.6697 5.22284 31.5494C5.25819 31.4291 5.32235 31.2265 5.36529 31.0994C5.40824 30.9722 5.48616 30.7584 5.53848 30.6245C5.59081 30.4903 5.67811 30.2794 5.7325 30.1557C5.78688 30.0319 5.9107 29.776 6.00752 29.5869C6.10434 29.3978 6.23985 29.1476 6.30851 29.0307C6.37716 28.9138 6.49095 28.7296 6.56114 28.6211C6.63134 28.5127 6.75207 28.3342 6.82948 28.2243C6.90675 28.1146 7.02015 27.9586 7.08149 27.8777C7.14282 27.7968 7.25956 27.6491 7.34083 27.5495C7.42209 27.4498 7.53523 27.3147 7.59219 27.2495C7.64928 27.1842 7.76538 27.0547 7.85024 26.962C7.93509 26.8691 8.13772 26.6618 8.30048 26.5012C8.46326 26.3406 8.69484 26.121 8.81503 26.013C8.93524 25.9051 9.11757 25.7466 9.22004 25.6609C9.32265 25.5753 9.48427 25.4434 9.57928 25.3679C9.67429 25.2925 9.84786 25.159 9.96499 25.0713C10.0821 24.9835 10.2878 24.834 10.4222 24.739C10.5565 24.6442 10.7909 24.4846 10.9429 24.3846C11.095 24.2844 11.3264 24.1364 11.4572 24.0555C11.588 23.9745 11.8368 23.8257 12.01 23.7247C12.1833 23.6236 12.4465 23.4744 12.595 23.3931C12.7436 23.3118 13.0097 23.1699 13.1865 23.0779C13.3633 22.9859 13.7104 22.813 13.9579 22.6938C14.2054 22.5746 14.5266 22.4236 14.6715 22.3583C14.8165 22.2931 15.0711 22.1806 15.2372 22.1085C15.4035 22.0363 15.6898 21.9153 15.8737 21.8396C16.0575 21.7638 16.3468 21.6471 16.5165 21.5804C16.6862 21.5135 17.0045 21.3917 17.2237 21.3096C17.4429 21.2276 17.819 21.091 18.0594 21.0061C18.2998 20.9211 18.647 20.8012 18.8308 20.7398C19.0147 20.6783 19.3502 20.5684 19.5765 20.4958C19.8028 20.423 20.1182 20.3238 20.2772 20.275C20.4364 20.2263 20.5781 20.1836 20.5922 20.1801C20.6064 20.1768 20.589 20.1888 20.5537 20.2069C20.5183 20.2251 20.3766 20.2994 20.2387 20.372C20.1009 20.4446 19.8694 20.5696 19.7244 20.65C19.5795 20.7302 19.3277 20.8736 19.1651 20.9685C19.0024 21.0633 18.7305 21.2255 18.5608 21.3287C18.3911 21.4318 18.0902 21.6201 17.8922 21.7468C17.6942 21.8737 17.4137 22.0566 17.2687 22.1534C17.1238 22.2502 16.8634 22.4278 16.6901 22.5481C16.5169 22.6685 16.2739 22.8398 16.1501 22.9289C16.0264 23.018 15.8267 23.1644 15.7065 23.254C15.5863 23.3438 15.3463 23.5266 15.1729 23.6605C14.9997 23.7942 14.7394 23.9995 14.5944 24.1165C14.4495 24.2335 14.2498 24.3969 14.1508 24.4796C14.0518 24.5622 13.8465 24.7375 13.6944 24.869C13.5424 25.0003 13.2878 25.2256 13.1289 25.3693C12.9698 25.5131 12.6843 25.7797 12.4941 25.962C12.3039 26.1441 12.014 26.431 11.8497 26.5994C11.6853 26.7678 11.4668 26.9957 11.3642 27.1057C11.2615 27.2157 11.1065 27.3844 11.0199 27.4807C10.9332 27.5769 10.7774 27.754 10.6735 27.8744C10.5696 27.9947 10.4036 28.1916 10.3045 28.3119C10.2054 28.4322 10.0402 28.6375 9.9373 28.7681C9.83432 28.8988 9.6466 29.1462 9.52007 29.3181C9.39343 29.49 9.21433 29.7404 9.1219 29.8744C9.02946 30.0083 8.90088 30.1983 8.83622 30.2963C8.77142 30.3943 8.64439 30.594 8.55362 30.7401C8.46297 30.8861 8.32204 31.1208 8.24042 31.2618C8.1589 31.4027 8.02956 31.6333 7.95293 31.7743C7.8763 31.9152 7.75917 32.1402 7.69243 32.2743C7.62583 32.4083 7.52799 32.6108 7.47502 32.7243C7.42205 32.8377 7.32523 33.0543 7.25966 33.2055C7.19421 33.3568 7.09985 33.5845 7.04996 33.7117C7.00007 33.8389 6.92152 34.0475 6.87549 34.1751C6.82946 34.3027 6.75952 34.5067 6.72005 34.6284C6.6807 34.7502 6.61976 34.9467 6.58492 35.0651C6.54995 35.1836 6.49247 35.3901 6.45711 35.5242C6.42176 35.6582 6.37187 35.8607 6.34641 35.9742C6.32094 36.0877 6.29755 36.1888 6.29447 36.1992C6.2896 36.2156 6.36904 36.218 6.95404 36.2186C7.31996 36.2189 7.77845 36.2263 7.97285 36.2348C8.16738 36.2433 8.61855 36.2639 8.97571 36.2805C9.33288 36.2973 9.82173 36.3193 10.0621 36.3296C10.3026 36.34 10.6816 36.3554 10.9043 36.364C11.1323 36.3728 11.7309 36.3795 12.2736 36.3795C12.8538 36.3795 13.3683 36.3734 13.5657 36.3642C13.7461 36.3557 13.9919 36.3429 14.1122 36.3359C14.2324 36.3289 14.4726 36.3121 14.6457 36.2984C14.8191 36.2847 15.117 36.2566 15.3079 36.2358C15.4988 36.2151 15.7766 36.1813 15.925 36.1608C16.0735 36.1405 16.3281 36.1016 16.4908 36.0744C16.6534 36.0473 16.8994 36.0029 17.0372 35.9758C17.1751 35.9487 17.3921 35.9033 17.5193 35.8748C17.6466 35.8464 17.8405 35.8006 17.95 35.7729C18.0597 35.7453 18.2775 35.6866 18.4341 35.6424C18.5908 35.5983 18.8508 35.5197 19.0121 35.4677C19.1732 35.4157 19.4356 35.3248 19.595 35.2657C19.7546 35.2067 20.0037 35.1092 20.1486 35.0491C20.2937 34.9888 20.5251 34.8881 20.6629 34.8251C20.8009 34.762 21.0406 34.6455 21.1956 34.566C21.3506 34.4865 21.5954 34.3543 21.7397 34.2725C21.8838 34.1905 22.1025 34.0605 22.2258 33.9835C22.349 33.9065 22.541 33.782 22.6524 33.707C22.7639 33.6318 22.9445 33.5052 23.054 33.4255C23.1634 33.3457 23.3485 33.2055 23.4654 33.1139C23.5823 33.0222 23.7821 32.8583 23.9094 32.7499C24.0366 32.6412 24.2399 32.4602 24.3609 32.3478C24.482 32.2351 24.6839 32.0389 24.8096 31.9118C24.9352 31.7845 25.1105 31.6018 25.1989 31.5055C25.2875 31.4093 25.4462 31.2298 25.5517 31.1068C25.6573 30.9837 25.8224 30.7845 25.9187 30.6638C26.0149 30.5433 26.1712 30.3403 26.2661 30.2127C26.3611 30.0849 26.524 29.8568 26.6281 29.7056C26.7324 29.5543 26.8754 29.3406 26.946 29.2306C27.0166 29.1206 27.1303 28.9389 27.199 28.8271C27.2675 28.7151 27.4046 28.4817 27.5037 28.3083C27.6027 28.1349 27.7885 27.7906 27.9167 27.5431C28.0449 27.2956 28.1915 27.0227 28.2426 26.9369C28.2937 26.8509 28.3921 26.6794 28.4613 26.5557C28.5306 26.4319 28.6774 26.1534 28.7878 25.9369C28.8981 25.7203 29.0471 25.4138 29.1191 25.2557C29.191 25.0975 29.2927 24.8669 29.3451 24.7432C29.3977 24.6194 29.4943 24.3803 29.5597 24.212C29.6253 24.0435 29.7415 23.7228 29.818 23.4995C29.8945 23.276 29.9977 22.9582 30.0475 22.7933C30.0971 22.6283 30.1727 22.3639 30.2156 22.2058C30.2582 22.0476 30.325 21.7848 30.3638 21.6217C30.4026 21.4584 30.4631 21.1873 30.4983 21.0192C30.5334 20.8511 30.5853 20.5852 30.6137 20.4283C30.6422 20.2716 30.6802 20.0482 30.6982 19.9318C30.7162 19.8155 30.7449 19.6215 30.762 19.5006C30.779 19.3797 30.8076 19.1542 30.8255 18.9996C30.8434 18.8449 30.8695 18.5974 30.8835 18.4496C30.8975 18.3018 30.9178 18.0628 30.9285 17.9184C30.9393 17.774 30.9541 17.5518 30.9613 17.4247C30.9686 17.2974 30.9803 17.0332 30.9874 16.8372C30.9943 16.6412 31 16.1884 31 15.8309C30.9999 15.4735 30.9942 15.0235 30.9874 14.831C30.9805 14.6385 30.9689 14.3656 30.9614 14.2247C30.954 14.0838 30.9392 13.8391 30.9286 13.681C30.918 13.5229 30.8979 13.2585 30.884 13.0935C30.87 12.9285 30.841 12.6219 30.8195 12.4123C30.798 12.2025 30.763 11.8875 30.7417 11.7123C30.7205 11.5369 30.6829 11.2473 30.6583 11.0685C30.6336 10.8898 30.5901 10.5917 30.5617 10.4061C30.5333 10.2204 30.4786 9.88518 30.4405 9.66105C30.4021 9.43681 30.3332 9.05432 30.2873 8.81107C30.2414 8.56771 30.163 8.17197 30.1131 7.93171C30.0632 7.69134 29.9852 7.32846 29.9397 7.12549C29.8943 6.92237 29.8218 6.607 29.7786 6.42487C29.7354 6.24263 29.6596 5.93052 29.6104 5.73112C29.561 5.53175 29.4741 5.19139 29.4173 4.97491C29.3603 4.75829 29.2589 4.38142 29.1918 4.13742C29.1246 3.89329 29.0147 3.50281 28.9473 3.26942C28.8801 3.03604 28.7759 2.68169 28.716 2.48194C28.656 2.28219 28.5462 1.92182 28.4719 1.6812C28.3976 1.44058 28.2612 1.01023 28.169 0.724988C28.0767 0.439628 27.9865 0.159866 27.9685 0.103123C27.9507 0.0463764 27.9311 0 27.9252 0L27.9251 0.000155512Z" fill="#15803D"/>
</svg>
